<svg xmlns="http://www.w3.org/2000/svg" viewBox="0 0 640 360">
  <defs>
    <linearGradient id="t2bg" x1="0" y1="0" x2="1" y2="1">
      <stop offset="0%" stop-color="#1a0a2e"/>
      <stop offset="100%" stop-color="#3a1a5e"/>
    </linearGradient>
    <radialGradient id="t2glow" cx="50%" cy="50%" r="40%">
      <stop offset="0%" stop-color="#58a6ff" stop-opacity="0.2"/>
      <stop offset="100%" stop-color="#58a6ff" stop-opacity="0"/>
    </radialGradient>
  </defs>

  <rect width="640" height="360" fill="url(#t2bg)"/>
  <ellipse cx="320" cy="180" rx="200" ry="200" fill="url(#t2glow)"/>

  <!-- Stars background -->
  <g fill="#ffffff" opacity="0.6">
    <circle cx="80" cy="80" r="1.5"/><circle cx="150" cy="50" r="1"/>
    <circle cx="250" cy="90" r="1.5"/><circle cx="400" cy="60" r="1"/>
    <circle cx="500" cy="100" r="1.5"/><circle cx="580" cy="70" r="1"/>
    <circle cx="100" cy="300" r="1"/><circle cx="200" cy="280" r="1.5"/>
    <circle cx="480" cy="290" r="1"/><circle cx="560" cy="310" r="1.5"/>
  </g>

  <!-- Film strip -->
  <rect x="0" y="0"   width="640" height="28" fill="rgba(0,0,0,0.5)"/>
  <rect x="0" y="332" width="640" height="28" fill="rgba(0,0,0,0.5)"/>
  <g fill="rgba(255,255,255,0.15)">
    <rect x="12"  y="6" width="28" height="16" rx="2"/>
    <rect x="52"  y="6" width="28" height="16" rx="2"/>
    <rect x="92"  y="6" width="28" height="16" rx="2"/>
    <rect x="132" y="6" width="28" height="16" rx="2"/>
    <rect x="172" y="6" width="28" height="16" rx="2"/>
    <rect x="212" y="6" width="28" height="16" rx="2"/>
    <rect x="252" y="6" width="28" height="16" rx="2"/>
    <rect x="292" y="6" width="28" height="16" rx="2"/>
    <rect x="332" y="6" width="28" height="16" rx="2"/>
    <rect x="372" y="6" width="28" height="16" rx="2"/>
    <rect x="412" y="6" width="28" height="16" rx="2"/>
    <rect x="452" y="6" width="28" height="16" rx="2"/>
    <rect x="492" y="6" width="28" height="16" rx="2"/>
    <rect x="532" y="6" width="28" height="16" rx="2"/>
    <rect x="572" y="6" width="28" height="16" rx="2"/>
    <rect x="12"  y="338" width="28" height="16" rx="2"/>
    <rect x="52"  y="338" width="28" height="16" rx="2"/>
    <rect x="92"  y="338" width="28" height="16" rx="2"/>
    <rect x="132" y="338" width="28" height="16" rx="2"/>
    <rect x="172" y="338" width="28" height="16" rx="2"/>
    <rect x="212" y="338" width="28" height="16" rx="2"/>
    <rect x="252" y="338" width="28" height="16" rx="2"/>
    <rect x="292" y="338" width="28" height="16" rx="2"/>
    <rect x="332" y="338" width="28" height="16" rx="2"/>
    <rect x="372" y="338" width="28" height="16" rx="2"/>
    <rect x="412" y="338" width="28" height="16" rx="2"/>
    <rect x="452" y="338" width="28" height="16" rx="2"/>
    <rect x="492" y="338" width="28" height="16" rx="2"/>
    <rect x="532" y="338" width="28" height="16" rx="2"/>
    <rect x="572" y="338" width="28" height="16" rx="2"/>
  </g>

  <!-- Play button (blue accent) -->
  <circle cx="320" cy="180" r="62" fill="rgba(88,166,255,0.15)" stroke="rgba(88,166,255,0.5)" stroke-width="2"/>
  <circle cx="320" cy="180" r="50" fill="rgba(88,166,255,0.22)"/>
  <polygon points="305,155 305,205 348,180" fill="#58a6ff"/>

  <text x="320" y="250" font-family="system-ui,sans-serif" font-size="16" font-weight="700"
        fill="#e6edf3" text-anchor="middle">Elephant Dream</text>
  <text x="320" y="272" font-family="system-ui,sans-serif" font-size="12"
        fill="#8b949e" text-anchor="middle">Animation &bull; 10:54</text>
</svg>
