<svg xmlns="http://www.w3.org/2000/svg" viewBox="0 0 640 360">
  <defs>
    <linearGradient id="t1bg" x1="0" y1="0" x2="1" y2="1">
      <stop offset="0%" stop-color="#0a1a3a"/>
      <stop offset="100%" stop-color="#1a3a6e"/>
    </linearGradient>
    <radialGradient id="t1glow" cx="50%" cy="50%" r="40%">
      <stop offset="0%" stop-color="#bc8cff" stop-opacity="0.25"/>
      <stop offset="100%" stop-color="#bc8cff" stop-opacity="0"/>
    </radialGradient>
  </defs>

  <!-- Background -->
  <rect width="640" height="360" fill="url(#t1bg)"/>

  <!-- Glow -->
  <ellipse cx="320" cy="180" rx="200" ry="200" fill="url(#t1glow)"/>

  <!-- Film strip top -->
  <rect x="0" y="0"   width="640" height="28" fill="rgba(0,0,0,0.5)"/>
  <rect x="0" y="332" width="640" height="28" fill="rgba(0,0,0,0.5)"/>
  <g fill="rgba(255,255,255,0.15)">
    <rect x="12"  y="6"  width="28" height="16" rx="2"/>
    <rect x="52"  y="6"  width="28" height="16" rx="2"/>
    <rect x="92"  y="6"  width="28" height="16" rx="2"/>
    <rect x="132" y="6"  width="28" height="16" rx="2"/>
    <rect x="172" y="6"  width="28" height="16" rx="2"/>
    <rect x="212" y="6"  width="28" height="16" rx="2"/>
    <rect x="252" y="6"  width="28" height="16" rx="2"/>
    <rect x="292" y="6"  width="28" height="16" rx="2"/>
    <rect x="332" y="6"  width="28" height="16" rx="2"/>
    <rect x="372" y="6"  width="28" height="16" rx="2"/>
    <rect x="412" y="6"  width="28" height="16" rx="2"/>
    <rect x="452" y="6"  width="28" height="16" rx="2"/>
    <rect x="492" y="6"  width="28" height="16" rx="2"/>
    <rect x="532" y="6"  width="28" height="16" rx="2"/>
    <rect x="572" y="6"  width="28" height="16" rx="2"/>
    <rect x="12"  y="338" width="28" height="16" rx="2"/>
    <rect x="52"  y="338" width="28" height="16" rx="2"/>
    <rect x="92"  y="338" width="28" height="16" rx="2"/>
    <rect x="132" y="338" width="28" height="16" rx="2"/>
    <rect x="172" y="338" width="28" height="16" rx="2"/>
    <rect x="212" y="338" width="28" height="16" rx="2"/>
    <rect x="252" y="338" width="28" height="16" rx="2"/>
    <rect x="292" y="338" width="28" height="16" rx="2"/>
    <rect x="332" y="338" width="28" height="16" rx="2"/>
    <rect x="372" y="338" width="28" height="16" rx="2"/>
    <rect x="412" y="338" width="28" height="16" rx="2"/>
    <rect x="452" y="338" width="28" height="16" rx="2"/>
    <rect x="492" y="338" width="28" height="16" rx="2"/>
    <rect x="532" y="338" width="28" height="16" rx="2"/>
    <rect x="572" y="338" width="28" height="16" rx="2"/>
  </g>

  <!-- Play button -->
  <circle cx="320" cy="180" r="62" fill="rgba(188,140,255,0.18)" stroke="rgba(188,140,255,0.5)" stroke-width="2"/>
  <circle cx="320" cy="180" r="50" fill="rgba(188,140,255,0.25)"/>
  <polygon points="305,155 305,205 348,180" fill="#bc8cff"/>

  <!-- Title -->
  <text x="320" y="250" font-family="system-ui,sans-serif" font-size="16" font-weight="700"
        fill="#e6edf3" text-anchor="middle">Big Buck Bunny</text>
  <text x="320" y="272" font-family="system-ui,sans-serif" font-size="12"
        fill="#8b949e" text-anchor="middle">Animation &bull; 9:56</text>
</svg>
