<svg xmlns="http://www.w3.org/2000/svg" viewBox="0 0 640 360">
  <defs>
    <linearGradient id="t3bg" x1="0" y1="0" x2="1" y2="1">
      <stop offset="0%" stop-color="#1a0800"/>
      <stop offset="100%" stop-color="#3a1800"/>
    </linearGradient>
    <radialGradient id="t3glow" cx="50%" cy="50%" r="40%">
      <stop offset="0%" stop-color="#d29922" stop-opacity="0.25"/>
      <stop offset="100%" stop-color="#d29922" stop-opacity="0"/>
    </radialGradient>
  </defs>

  <rect width="640" height="360" fill="url(#t3bg)"/>
  <ellipse cx="320" cy="180" rx="200" ry="200" fill="url(#t3glow)"/>

  <!-- Motion blur lines (speed effect) -->
  <g stroke="#ff8800" stroke-width="1" opacity="0.12">
    <line x1="0" y1="80" x2="640" y2="110"/>
    <line x1="0" y1="130" x2="640" y2="155"/>
    <line x1="0" y1="180" x2="640" y2="200"/>
    <line x1="0" y1="230" x2="640" y2="245"/>
    <line x1="0" y1="280" x2="640" y2="290"/>
  </g>
  <g stroke="#ffaa00" stroke-width="2" opacity="0.08">
    <line x1="0" y1="100" x2="640" y2="135"/>
    <line x1="0" y1="200" x2="640" y2="225"/>
    <line x1="0" y1="300" x2="640" y2="315"/>
  </g>

  <!-- Film strip -->
  <rect x="0" y="0"   width="640" height="28" fill="rgba(0,0,0,0.5)"/>
  <rect x="0" y="332" width="640" height="28" fill="rgba(0,0,0,0.5)"/>
  <g fill="rgba(255,255,255,0.15)">
    <rect x="12"  y="6" width="28" height="16" rx="2"/>
    <rect x="52"  y="6" width="28" height="16" rx="2"/>
    <rect x="92"  y="6" width="28" height="16" rx="2"/>
    <rect x="132" y="6" width="28" height="16" rx="2"/>
    <rect x="172" y="6" width="28" height="16" rx="2"/>
    <rect x="212" y="6" width="28" height="16" rx="2"/>
    <rect x="252" y="6" width="28" height="16" rx="2"/>
    <rect x="292" y="6" width="28" height="16" rx="2"/>
    <rect x="332" y="6" width="28" height="16" rx="2"/>
    <rect x="372" y="6" width="28" height="16" rx="2"/>
    <rect x="412" y="6" width="28" height="16" rx="2"/>
    <rect x="452" y="6" width="28" height="16" rx="2"/>
    <rect x="492" y="6" width="28" height="16" rx="2"/>
    <rect x="532" y="6" width="28" height="16" rx="2"/>
    <rect x="572" y="6" width="28" height="16" rx="2"/>
    <rect x="12"  y="338" width="28" height="16" rx="2"/>
    <rect x="52"  y="338" width="28" height="16" rx="2"/>
    <rect x="92"  y="338" width="28" height="16" rx="2"/>
    <rect x="132" y="338" width="28" height="16" rx="2"/>
    <rect x="172" y="338" width="28" height="16" rx="2"/>
    <rect x="212" y="338" width="28" height="16" rx="2"/>
    <rect x="252" y="338" width="28" height="16" rx="2"/>
    <rect x="292" y="338" width="28" height="16" rx="2"/>
    <rect x="332" y="338" width="28" height="16" rx="2"/>
    <rect x="372" y="338" width="28" height="16" rx="2"/>
    <rect x="412" y="338" width="28" height="16" rx="2"/>
    <rect x="452" y="338" width="28" height="16" rx="2"/>
    <rect x="492" y="338" width="28" height="16" rx="2"/>
    <rect x="532" y="338" width="28" height="16" rx="2"/>
    <rect x="572" y="338" width="28" height="16" rx="2"/>
  </g>

  <!-- Play button (orange accent) -->
  <circle cx="320" cy="180" r="62" fill="rgba(210,153,34,0.15)" stroke="rgba(210,153,34,0.5)" stroke-width="2"/>
  <circle cx="320" cy="180" r="50" fill="rgba(210,153,34,0.22)"/>
  <polygon points="305,155 305,205 348,180" fill="#d29922"/>

  <text x="320" y="250" font-family="system-ui,sans-serif" font-size="16" font-weight="700"
        fill="#e6edf3" text-anchor="middle">For Bigger Joyrides</text>
  <text x="320" y="272" font-family="system-ui,sans-serif" font-size="12"
        fill="#8b949e" text-anchor="middle">Demo &bull; 0:15</text>
</svg>
